<svg width="42" height="41" viewBox="0 0 42 41" fill="none" xmlns="http://www.w3.org/2000/svg">
<g clip-path="url(#clip0_2112_4582)">
<path d="M22.7898 11.2082L24.0399 10.6947C25.0551 10.292 26.3674 9.88088 27.9162 10.141C31.0894 10.6746 33.2775 12.3879 34.5813 14.6599C35.0848 15.5359 34.6787 16.6903 33.739 17.0578C32.9339 17.3728 32.2458 17.9286 31.7686 18.6494C31.2914 19.3701 31.0484 20.2207 31.0728 21.0848C31.0972 21.9489 31.3879 22.7843 31.905 23.477C32.4222 24.1697 33.1406 24.6857 33.9622 24.9547C34.8314 25.2399 35.3214 26.2048 35.0361 27.074C34.2944 29.326 33.2272 31.4051 31.9636 33.0831C30.7152 34.741 29.1915 36.117 27.495 36.7899C26.3875 37.2262 25.1994 37.0634 24.0634 36.7815L23.3888 36.6019L22.3871 36.3116C21.9323 36.1791 21.4641 36.065 21.0044 36.065C20.5429 36.065 20.0764 36.1791 19.6216 36.3116L18.6199 36.6019L17.9453 36.7815C16.8093 37.0634 15.6195 37.2278 14.5137 36.7899C12.3776 35.9441 10.4931 33.9708 9.06847 31.6433C7.52613 29.0803 6.50855 26.2363 6.07485 23.2766C5.69394 20.669 5.90034 17.7408 7.10685 15.264C8.34859 12.7117 10.624 10.7249 14.0925 10.141C15.5021 9.90437 16.7136 10.2215 17.6835 10.5857L18.2389 10.8038L19.2189 11.2082C19.8901 11.4717 20.4187 11.626 21.0044 11.626C21.5883 11.626 22.1186 11.4717 22.7898 11.2082ZM20.615 4.63533C22.2528 2.99589 24.7682 2.85494 25.3605 3.44896C25.9546 4.04131 25.8136 6.55669 24.1742 8.19445C22.5364 9.83221 20.021 9.97317 19.4287 9.38082C18.8346 8.78848 18.9756 6.2731 20.615 4.63533Z" fill="black"/>
</g>
<defs>
<clipPath id="clip0_2112_4582">
<rect width="40.2729" height="40.2729" fill="white" transform="translate(0.868073 -0.0090332)"/>
</clipPath>
</defs>
</svg>
