<svg width="86" height="87" viewBox="0 0 86 87" fill="none" xmlns="http://www.w3.org/2000/svg">
<path d="M63.3267 30.1986C61.3083 41.9035 49.5255 48.5593 39.7931 46.5724C36.5767 45.9157 33.0954 44.2152 30.2626 41.548C27.5877 39.03 25.491 35.6499 24.7414 31.4734C22.8058 20.6859 31.3611 12.9639 32.7299 11.7774C33.878 10.7821 42.6641 3.42137 52.254 7.68353C54.645 8.7462 56.7334 10.3748 58.4451 12.3763V12.3766C62.4739 17.0882 64.4189 23.8653 63.3267 30.1986Z" fill="#EA852F"/>
<path d="M63.3268 30.1986C61.3084 41.9035 49.5255 48.5593 39.7932 46.5724C36.5768 45.9157 33.0955 44.2152 30.2627 41.548C30.2627 41.548 56.372 39.6787 58.4452 12.3768C62.474 17.0882 64.419 23.8653 63.3268 30.1986Z" fill="#EA852F" fill-opacity="0.0666667"/>
<path d="M74.2493 71.7292L72.8776 74.8593C71.2046 78.6751 67.4333 81.1396 63.2668 81.1396H24.39C19.8781 81.1396 15.8722 78.2554 14.4398 73.9784C14.4375 73.9721 14.4355 73.9657 14.4332 73.9594L13.2031 70.2623C10.4921 62.1161 13.8042 53.1452 21.2103 48.8027C24.0809 47.1197 27.4238 46.1548 30.9916 46.1548H57.6043C57.7528 46.1548 57.9007 46.1565 58.0489 46.1599C59.545 46.1938 60.9818 46.403 62.3438 46.7645C72.7638 49.5334 78.846 61.2429 74.2493 71.7292Z" fill="#EA852F"/>
<path d="M74.2493 71.7292L72.8776 74.8593C71.2046 78.6751 67.4332 81.1396 63.2668 81.1396H24.3899C19.8781 81.1396 15.8722 78.2554 14.4397 73.9784C15.0781 74.2441 32.0723 81.2161 44.0289 75.9062C56.1058 70.5427 73.7794 68.8399 62.3434 46.7645C72.7638 49.5334 78.846 61.2429 74.2493 71.7292Z" fill="#EA852F" fill-opacity="0.0666667"/>
<path d="M42.7085 47.3871C42.296 47.3871 41.8872 47.3739 41.4818 47.3476C38.5306 47.1555 35.9302 46.2599 33.9614 44.7581C25.8725 38.5865 26.488 36.0056 26.5846 35.7318L27.3282 35.9944C27.3282 35.9944 27.3311 35.9884 27.334 35.9761C27.3282 35.999 26.8564 38.3448 34.4396 44.1309C36.2843 45.5384 38.737 46.3783 41.5328 46.5604C44.2562 46.7375 47.179 46.29 49.9858 45.2661C53.0279 44.1564 55.7684 42.4252 57.9118 40.2597C59.0525 39.1073 60.0194 37.8363 60.7857 36.4817C61.5958 35.0501 62.1872 33.5142 62.5432 31.9172C63.2031 28.9585 63.3032 26.0221 62.8405 23.1893C62.4701 20.9221 61.7406 18.7139 60.6719 16.6266C59.7187 14.7653 58.6666 13.3463 57.952 12.4837C57.176 11.5472 56.6187 11.0455 56.6132 11.0404C56.451 10.8953 56.4372 10.6459 56.5823 10.4837C56.7273 10.3214 56.9764 10.3074 57.1387 10.4524C57.2327 10.5364 59.4653 12.5528 61.3584 16.2373C62.4695 18.4 63.2289 20.689 63.6153 23.0408C64.0981 25.98 63.9966 29.0241 63.3129 32.0889C62.9397 33.7621 62.3205 35.3706 61.472 36.8702C60.6713 38.2852 59.6619 39.6124 58.4723 40.8144C56.2477 43.0622 53.4066 44.8576 50.2561 46.0068C47.7638 46.9167 45.1787 47.3871 42.7085 47.3871ZM72.8839 75.2609C72.8222 75.2609 72.7597 75.2465 72.7015 75.2159C72.5086 75.115 72.4338 74.8767 72.5347 74.6838C73.6493 72.5507 74.4476 70.3927 74.9077 68.2691C75.2752 66.5726 75.4289 64.8936 75.3644 63.2794C75.2546 60.5296 74.5394 58.8979 74.5322 58.8819C74.5305 58.8782 74.5285 58.8736 74.527 58.8698C73.268 55.7865 71.6199 53.2208 69.6285 51.2439C68.0403 49.6676 66.2303 48.4587 64.2486 47.6511C60.8659 46.2729 58.1139 46.544 58.0867 46.5469C57.8703 46.5698 57.6762 46.413 57.653 46.1969C57.6298 45.9804 57.786 45.7864 58.0024 45.7629C58.1211 45.75 60.9468 45.465 64.5063 46.9047C66.5921 47.748 68.4953 49.0128 70.1634 50.6634C72.2386 52.7168 73.9517 55.3759 75.2552 58.566C75.3165 58.7047 76.0309 60.3783 76.151 63.2014C76.2227 64.8864 76.0661 66.6371 75.686 68.4044C75.2122 70.6074 74.3871 72.8431 73.2345 75.0493C73.2008 75.1131 73.1504 75.1666 73.0886 75.2039C73.0268 75.2411 72.956 75.2608 72.8839 75.2609Z" fill="#2F67EA"/>
<path d="M63.5116 59.9552C63.4915 59.9552 63.4712 59.9541 63.4505 59.952C63.1255 59.9188 62.8893 59.6284 62.9225 59.3033C63.331 55.3204 60.9577 50.277 60.9336 50.2263C60.7932 49.9313 60.9187 49.5784 61.2137 49.4383C61.5087 49.2978 61.8616 49.4231 62.002 49.718C62.0281 49.7728 62.6453 51.0771 63.2158 52.9201C63.9886 55.4167 64.2859 57.6048 64.0996 59.4237C64.068 59.7284 63.8112 59.9552 63.5116 59.9552ZM58.0621 67.5544C57.8072 67.5544 57.5719 67.3885 57.4956 67.1316C57.4025 66.8186 57.5805 66.4892 57.8935 66.396C60.9376 65.4893 61.939 62.7098 61.9487 62.6817C62.0562 62.3732 62.3933 62.2104 62.7021 62.3182C63.0105 62.4257 63.1733 62.7631 63.0656 63.0716C63.0177 63.2092 61.8489 66.4522 58.2312 67.5298C58.175 67.5464 58.118 67.5544 58.0621 67.5544ZM48.9223 70.9953C48.6918 70.9953 48.4725 70.8597 48.3773 70.6338C48.2503 70.3328 48.3911 69.986 48.6921 69.859L54.4633 67.4214C54.7643 67.2944 55.1111 67.4352 55.2381 67.7362C55.3651 68.0372 55.2244 68.3841 54.9234 68.5111L49.1522 70.9486C49.0795 70.9794 49.0013 70.9953 48.9223 70.9953ZM52.5059 26.5118C52.4061 26.5118 52.3049 26.4866 52.2121 26.4333C51.9288 26.2707 51.8311 25.9092 51.9936 25.626C53.6801 22.6882 54.6906 19.7006 55.2413 17.7117C55.8401 15.5488 56.0405 14.0647 56.0422 14.0501C56.0849 13.7265 56.3825 13.4986 56.7059 13.5413C57.0295 13.584 57.2574 13.881 57.2147 14.2046C57.2064 14.2674 57.0051 15.7675 56.3874 18.0038C55.8183 20.0644 54.7717 23.1615 53.019 26.2148C52.9101 26.4052 52.7109 26.5118 52.5059 26.5118ZM44.0475 35.9391C43.8296 35.9391 43.6204 35.8184 43.5172 35.61C43.3721 35.3173 43.492 34.9624 43.7846 34.8174C47.4233 33.0151 50.9307 27.4549 50.9656 27.3987C51.1388 27.1218 51.5037 27.0378 51.7806 27.211C52.0576 27.3841 52.1418 27.7491 51.9687 28.026C51.9311 28.0859 51.0362 29.5118 49.6521 31.1934C47.7733 33.4764 45.9756 35.0522 44.3098 35.8775C44.2283 35.918 44.1385 35.9391 44.0475 35.9391ZM38.7419 38.5558C38.4911 38.5558 38.2583 38.395 38.1783 38.1433C38.0794 37.832 38.2517 37.4994 38.563 37.4005C39.3726 37.1431 40.8113 36.5474 41.2256 36.0463C41.4337 35.7946 41.8064 35.7591 42.0583 35.9669C42.31 36.175 42.3456 36.5477 42.1377 36.7997C41.7906 37.2199 41.1542 37.6273 40.1924 38.0453C39.5225 38.3362 38.9457 38.5203 38.9213 38.528C38.8614 38.5469 38.8012 38.5558 38.7419 38.5558Z" fill="#EA852F" fill-opacity="0.0666667"/>
</svg>
