<svg width="42" height="41" viewBox="0 0 42 41" fill="none" xmlns="http://www.w3.org/2000/svg">
<g clip-path="url(#clip0_2112_4577)">
<path d="M41.2199 20.1274C41.2199 9.00643 32.2045 -0.0090332 21.0835 -0.0090332C9.96252 -0.0090332 0.947052 9.00643 0.947052 20.1274C0.947052 30.178 8.3107 38.5087 17.9372 40.0192V25.9481H12.8244V20.1274H17.9372V15.6911C17.9372 10.6444 20.9435 7.85677 25.5431 7.85677C27.7461 7.85677 30.0505 8.25006 30.0505 8.25006V13.2055H27.5114C25.0099 13.2055 24.2298 14.7577 24.2298 16.3503V20.1274H29.8145L28.9218 25.9481H24.2298V40.0192C33.8563 38.5087 41.2199 30.1782 41.2199 20.1274Z" fill="#1877F2"/>
<path d="M28.9218 25.9483L29.8146 20.1276H24.2299V16.3504C24.2299 14.7578 25.01 13.2057 27.5115 13.2057H30.0506V8.25022C30.0506 8.25022 27.7462 7.85693 25.543 7.85693C20.9435 7.85693 17.9372 10.6446 17.9372 15.6913V20.1276H12.8245V25.9483H17.9372V40.0194C18.9781 40.1825 20.03 40.2643 21.0836 40.264C22.1371 40.2643 23.189 40.1826 24.2299 40.0194V25.9483H28.9218Z" fill="white"/>
</g>
<defs>
<clipPath id="clip0_2112_4577">
<rect width="40.2729" height="40.2729" fill="white" transform="translate(0.947052 -0.0090332)"/>
</clipPath>
</defs>
</svg>
