<svg width="41" height="41" viewBox="0 0 41 41" fill="none" xmlns="http://www.w3.org/2000/svg">
<path d="M36.9136 16.8406H35.5619V16.771H20.4596V23.4831H29.943C28.5595 27.3904 24.8418 30.1953 20.4596 30.1953C14.8994 30.1953 10.3913 25.6872 10.3913 20.1271C10.3913 14.5669 14.8994 10.0588 20.4596 10.0588C23.0261 10.0588 25.3611 11.0271 27.139 12.6086L31.8853 7.86228C28.8883 5.06918 24.8795 3.34668 20.4596 3.34668C11.1926 3.34668 3.6792 10.8601 3.6792 20.1271C3.6792 29.394 11.1926 36.9074 20.4596 36.9074C29.7265 36.9074 37.2399 29.394 37.2399 20.1271C37.2399 19.0019 37.1242 17.9037 36.9136 16.8406Z" fill="#FFC107"/>
<path d="M5.61389 12.3166L11.1271 16.3599C12.6189 12.6665 16.2317 10.0588 20.4595 10.0588C23.026 10.0588 25.361 11.0271 27.1389 12.6086L31.8852 7.86228C28.8883 5.06918 24.8794 3.34668 20.4595 3.34668C14.0141 3.34668 8.4246 6.9855 5.61389 12.3166Z" fill="#FF3D00"/>
<path d="M20.4596 36.9078C24.794 36.9078 28.7323 35.2491 31.71 32.5516L26.5165 28.1568C24.7751 29.4811 22.6473 30.1974 20.4596 30.1956C16.095 30.1956 12.3891 27.4126 10.993 23.5288L5.52087 27.7449C8.29803 33.1792 13.9379 36.9078 20.4596 36.9078Z" fill="#4CAF50"/>
<path d="M36.9135 16.8414H35.5619V16.7717H20.4595V23.4839H29.943C29.2811 25.3435 28.089 26.9685 26.5139 28.158L26.5164 28.1564L31.7099 32.5511C31.3424 32.8851 37.2399 28.518 37.2399 20.1278C37.2399 19.0027 37.1241 17.9044 36.9135 16.8414Z" fill="#1976D2"/>
</svg>
