<svg width="85" height="86" viewBox="0 0 85 86" fill="none" xmlns="http://www.w3.org/2000/svg">
<path d="M20.0695 69.9481L19.6495 76.3828H10.6847C10.6847 76.3828 6.0578 75.6972 5.47841 73.6303C4.90399 71.6016 7.7578 72.8102 7.85575 72.8517C7.74452 72.7421 4.96542 69.9946 6.2869 67.8812C7.60839 65.7678 9.90106 68.2033 10.0173 68.3261C9.92099 68.1601 7.80927 64.5725 9.51923 63.1663C11.2707 61.7286 13.2463 65.9056 13.2463 65.9056C13.2463 65.9056 13.2911 62.6998 16.794 62.8659C20.297 63.0319 20.0695 69.9481 20.0695 69.9481ZM80.0277 73.6303C79.445 75.6972 74.8182 76.3828 74.8182 76.3828H65.8533L65.4333 69.9481C65.4333 69.9481 65.2092 63.0319 68.7121 62.8659C72.215 62.6998 72.2599 65.9056 72.2599 65.9056C72.2599 65.9056 74.2371 61.7286 75.9886 63.1663C77.7002 64.5725 75.5868 68.1651 75.4905 68.3261C75.6067 68.2033 77.9077 65.7811 79.2209 67.8812C80.5341 69.9813 77.7633 72.7421 77.652 72.8517C77.7483 72.8102 80.6021 71.6016 80.0277 73.6303Z" fill="#287EEF"/>
<path d="M15.7964 9.82715H70.1366V75.2489H15.7964V9.82715Z" fill="#917EEC"/>
<path d="M15.8047 22.021H70.1449V52.103H15.8047V22.021Z" fill="#6D5FDE"/>
<mask id="mask0_2174_507" style="mask-type:luminance" maskUnits="userSpaceOnUse" x="11" y="27" width="64" height="15">
<path d="M74.9061 41.5279H11.0415L15.8045 27.0978H70.1447L74.9061 41.5279Z" fill="white"/>
</mask>
<g mask="url(#mask0_2174_507)">
<path d="M74.9061 41.5279H11.0415L15.8045 27.0978H70.1447L74.9061 41.5279Z" fill="#E73F46"/>
<path d="M29.1157 42.9838H20.2588L24.2432 25.7513H31.5479L29.1157 42.9838ZM47.404 42.9838H38.5454L39.3224 25.7513H46.6271L47.404 42.9838ZM65.6906 42.9838H56.832L54.4016 25.7513H61.7046L65.6906 42.9838Z" fill="#F2F2F2"/>
</g>
<path d="M11.0415 41.5278H20.5044V43.4702C20.5044 43.8225 20.3645 44.1603 20.1154 44.4093C19.8663 44.6584 19.5285 44.7983 19.1763 44.7983H12.1488C11.8551 44.7983 11.5735 44.6817 11.3658 44.474C11.1582 44.2663 11.0415 43.9847 11.0415 43.691V41.5278Z" fill="#CC3745"/>
<path d="M20.5028 41.5278H29.3946V43.6777C29.3946 43.9749 29.2766 44.26 29.0664 44.4701C28.8563 44.6803 28.5712 44.7983 28.274 44.7983H21.7994C21.4547 44.7983 21.124 44.6614 20.8802 44.4176C20.6365 44.1738 20.4995 43.8432 20.4995 43.4984V41.5278H20.5028Z" fill="#C6C6C6"/>
<path d="M29.3962 41.5278H38.6399V43.52C38.6399 43.8568 38.5061 44.1799 38.268 44.4181C38.0298 44.6562 37.7068 44.79 37.3699 44.79H30.6264C30.4646 44.79 30.3044 44.7582 30.155 44.6963C30.0055 44.6344 29.8697 44.5436 29.7553 44.4292C29.6409 44.3149 29.5502 44.1791 29.4883 44.0296C29.4264 43.8802 29.3945 43.72 29.3945 43.5582V41.5278H29.3962Z" fill="#CC3745"/>
<path d="M38.6401 41.5278H47.3908V43.7458C47.3908 44.0245 47.2801 44.2918 47.083 44.4889C46.8859 44.686 46.6187 44.7967 46.3399 44.7967H39.5848C39.3342 44.7967 39.094 44.6972 38.9168 44.52C38.7397 44.3429 38.6401 44.1026 38.6401 43.8521V41.5278Z" fill="#C6C6C6"/>
<path d="M47.3906 41.5278H56.6111V43.7856C56.6111 44.0564 56.5036 44.3161 56.3121 44.5076C56.1206 44.6991 55.8609 44.8066 55.5901 44.8066H48.4764C48.1902 44.8066 47.9157 44.6929 47.7133 44.4906C47.511 44.2882 47.3973 44.0137 47.3973 43.7275V41.5278H47.3906Z" fill="#CC3745"/>
<path d="M56.6113 41.5278H65.4367V43.7392C65.4367 44.0198 65.3254 44.2889 65.1271 44.4875C64.9288 44.6861 64.6598 44.7979 64.3792 44.7983H57.7734C57.4652 44.7983 57.1696 44.6759 56.9517 44.458C56.7338 44.24 56.6113 43.9444 56.6113 43.6362V41.5278Z" fill="#C6C6C6"/>
<path d="M65.4299 41.5278H74.9061V43.8969C74.9061 44.015 74.8828 44.132 74.8376 44.2412C74.7923 44.3504 74.7261 44.4496 74.6425 44.5331C74.559 44.6167 74.4598 44.683 74.3506 44.7282C74.2414 44.7734 74.1244 44.7967 74.0063 44.7967H66.5007C66.2163 44.7967 65.9435 44.6837 65.7423 44.4826C65.5412 44.2814 65.4282 44.0087 65.4282 43.7242V41.5278H65.4299Z" fill="#CC3745"/>
<path d="M18.2217 47.7915H33.4918V72.8532H18.2217V47.7915ZM35.8924 47.7915H67.6296V67.5523H35.8924V47.7915Z" fill="#86EBF9"/>
<path d="M33.4918 47.7915C33.4918 47.7915 29.8046 64.8513 19.6494 72.8599H33.4918V47.7915ZM67.6296 49.6691C65.742 54.3939 60.4527 63.3272 46.5788 67.5523H67.6296V49.6691Z" fill="#40C2D6"/>
<path d="M33.4919 72.2241H72.1819V76.3845H33.4919V72.2241Z" fill="#EFBD42"/>
<path d="M15.1223 72.2241H36.5898V74.3043H15.1223V72.2241Z" fill="#E73F46"/>
<path d="M13.5518 74.3027H38.1636V76.3829H13.5518V74.3027Z" fill="#E73F46"/>
<path d="M31.073 55.6208H31.9263V64.7833H31.073V55.6208Z" fill="#F2F2F2"/>
<path d="M14.1045 14.2581H71.8298V24.3186H14.1045V14.2581Z" fill="#EFBD42"/>
<path d="M40.0328 21.5777C39.8436 21.4565 39.8286 20.4787 39.8286 20.2496C39.8286 19.8013 39.838 18.4588 39.8568 16.222C39.8568 15.7954 39.5796 15.5812 39.0268 15.5812C38.991 15.5776 38.9551 15.5857 38.9243 15.6042C38.8935 15.6228 38.8696 15.6508 38.8562 15.6841C38.8427 15.7174 38.8404 15.7542 38.8496 15.7889C38.8588 15.8236 38.879 15.8544 38.9072 15.8767C38.9919 15.9946 38.9637 16.4677 38.9354 18.9413H37.1757L37.1873 16.227C37.1873 15.8003 36.9101 15.5862 36.3572 15.5862C36.3231 15.5863 36.2897 15.5965 36.2613 15.6155C36.2329 15.6344 36.2106 15.6613 36.1974 15.6928C36.1841 15.7243 36.1804 15.759 36.1867 15.7926C36.193 15.8261 36.209 15.8571 36.2327 15.8817C36.334 16.0062 36.2875 16.6985 36.2659 19.0227C36.2543 20.3126 36.2327 20.0188 36.2327 20.4604C36.2161 20.8342 36.2661 21.2081 36.3805 21.5644C36.4284 21.7057 36.5226 21.8268 36.6478 21.908C36.7613 21.9625 36.8865 21.9884 37.0123 21.9834C37.1382 21.9785 37.2609 21.943 37.3699 21.8798C37.3957 21.8641 37.417 21.842 37.4317 21.8157C37.4465 21.7894 37.4543 21.7598 37.4543 21.7296C37.4543 21.6994 37.4465 21.6697 37.4317 21.6434C37.417 21.6171 37.3957 21.595 37.3699 21.5793C37.0993 21.4133 37.174 19.6403 37.174 19.29H38.9288C38.9155 20.3425 38.8989 20.1001 38.8989 20.4521C38.8806 20.831 38.9313 21.2102 39.0483 21.571C39.2011 22.0027 39.646 22.0956 40.0361 21.8865C40.0637 21.871 40.0866 21.8484 40.1024 21.8211C40.1182 21.7938 40.1264 21.7627 40.126 21.7311C40.1257 21.6995 40.1168 21.6686 40.1004 21.6416C40.0841 21.6146 40.0607 21.5925 40.0328 21.5777ZM48.3917 17.1567C48.4295 16.8762 48.3797 16.5909 48.2489 16.3399C47.7343 15.3355 46.1057 15.3438 45.3569 16.2004C45.0601 16.5636 44.848 16.9884 44.736 17.4439C44.6157 17.8928 44.5532 18.3554 44.5501 18.8202C44.5501 20.306 45.181 22.0126 46.6187 22.0126C48.5162 22.0126 48.8831 18.8965 48.1726 17.5966C48.2894 17.4762 48.366 17.3225 48.3917 17.1567ZM47.9783 20.2496C47.8372 20.8854 47.5085 21.5445 46.8544 21.5445C46.2999 21.5445 45.9181 21.1228 45.6923 20.4919C45.5864 20.204 45.5173 19.904 45.4864 19.5988C45.3911 18.8072 45.4641 18.0044 45.7006 17.243C45.8882 16.6835 46.1505 16.315 46.4892 16.134C46.5908 16.0764 46.7045 16.0434 46.8212 16.0377C46.9316 16.0377 47.0409 16.0597 47.1427 16.1025C47.2445 16.1452 47.3368 16.2079 47.4141 16.2867C47.4914 16.3655 47.5522 16.459 47.5929 16.5617C47.6336 16.6643 47.6535 16.774 47.6513 16.8844C47.65 17.0346 47.5894 17.1781 47.4827 17.2838C47.3761 17.3896 47.232 17.4489 47.0818 17.4489C46.9624 17.4397 46.8477 17.3984 46.7498 17.3293C46.7317 17.3095 46.7096 17.2937 46.685 17.2828C46.6605 17.272 46.6339 17.2663 46.607 17.2663C46.5489 17.2663 46.5207 17.3094 46.5207 17.3957C46.5207 17.7278 47.1399 18.1113 47.7675 17.8639C48.1311 18.5512 48.1344 19.4892 47.9783 20.2496ZM57.4628 17.0704C57.4628 15.7422 56.4916 15.2641 55.6565 15.7655C55.2539 16.0108 54.9292 16.3655 54.7202 16.7881V16.2253C54.7202 15.7538 54.3533 15.5845 53.8802 15.5845C53.8444 15.5809 53.8085 15.589 53.7777 15.6075C53.747 15.6261 53.723 15.6541 53.7096 15.6874C53.6961 15.7207 53.6938 15.7575 53.703 15.7922C53.7122 15.827 53.7324 15.8578 53.7606 15.88C53.8453 15.9979 53.8138 16.7101 53.8088 17.419C53.8088 17.4356 53.7872 19.4809 53.7706 20.0437C53.7391 20.467 53.744 21.166 53.9034 21.5627C53.9403 21.6839 54.015 21.79 54.1166 21.8656C54.2182 21.9411 54.3413 21.9822 54.4679 21.9828C54.6162 21.9848 54.7625 21.9488 54.8929 21.8782C54.9201 21.8642 54.9429 21.8431 54.9588 21.817C54.9748 21.7909 54.9832 21.761 54.9832 21.7304C54.9832 21.6999 54.9748 21.6699 54.9588 21.6438C54.9429 21.6178 54.9201 21.5966 54.8929 21.5827C54.8397 21.5478 54.7966 21.4382 54.7584 21.2506C54.6521 20.7825 54.692 20.0703 54.692 19.6984C56.314 19.6552 57.4628 18.4881 57.4628 17.0704ZM54.7103 18.088C54.7883 17.1915 55.2199 16.2951 56.0616 15.9663C56.7024 16.2137 56.9133 17.6979 55.9089 18.6724C55.5746 18.9874 55.1568 19.1994 54.7053 19.2833C54.7103 18.9247 54.7103 18.523 54.7103 18.088ZM30.4205 15.9996C31.1477 16.0162 31.3618 16.6885 31.3618 17.4157C31.3572 17.4857 31.3801 17.5548 31.4257 17.6081C31.4713 17.6615 31.536 17.6949 31.6059 17.7012C32.4857 17.7012 32.2268 16.3117 31.4398 15.8286C31.0772 15.6219 30.6623 15.5254 30.2457 15.5507C29.8291 15.5761 29.4289 15.7222 29.094 15.9713C28.8936 16.1206 28.7326 16.3166 28.6253 16.5423C28.5179 16.768 28.4674 17.0165 28.4781 17.2663C28.4715 18.9829 31.2107 19.3165 31.2107 20.5434C31.2107 21.3237 30.2147 21.9313 29.6917 21.3735C29.402 21.0389 29.2496 20.6072 29.265 20.1649C29.2701 20.0948 29.2476 20.0256 29.2023 19.9719C29.157 19.9183 29.0926 19.8844 29.0227 19.8777C28.6906 19.8777 28.4731 20.0786 28.4731 20.4604C28.476 20.7187 28.5434 20.9722 28.6693 21.1977C28.7951 21.4233 28.9754 21.6139 29.1937 21.752C29.5557 21.9589 29.9703 22.0555 30.3865 22.0299C30.8027 22.0042 31.2023 21.8574 31.5361 21.6076C31.7377 21.4591 31.8998 21.2633 32.0081 21.0375C32.1163 20.8117 32.1675 20.5628 32.157 20.3126C32.157 18.5728 29.4145 18.6824 29.4145 17.0438C29.4107 16.7794 29.5101 16.5239 29.6917 16.3316C29.7824 16.2274 29.8944 16.1438 30.0201 16.0865C30.1458 16.0292 30.2824 15.9996 30.4205 15.9996Z" fill="#231F20"/>
</svg>
